<?xml version="1.0" encoding="UTF-8" standalone="no"?>
<svg
   xmlns:dc="http://purl.org/dc/elements/1.1/"
   xmlns:cc="http://creativecommons.org/ns#"
   xmlns:rdf="http://www.w3.org/1999/02/22-rdf-syntax-ns#"
   xmlns:svg="http://www.w3.org/2000/svg"
   xmlns="http://www.w3.org/2000/svg"
   xmlns:sodipodi="http://sodipodi.sourceforge.net/DTD/sodipodi-0.dtd"
   xmlns:inkscape="http://www.inkscape.org/namespaces/inkscape"
   height="607.37415"
   width="631.3053"
   viewBox="0 0 631.3053 607.37415"
   id="svg13038"
   version="1.1"
   inkscape:version="0.48.5 r10040"
   sodipodi:docname="icon-edit-round-grad-collection.svg"
   inkscape:export-filename="C:\Users\a.saraswati\Documents\IDSP\Design\assets\icon-idsp\icon-edit-round-gradient\icon-edit-round-grad-collection.png"
   inkscape:export-xdpi="7.1999998"
   inkscape:export-ydpi="7.1999998">
  <metadata
     id="metadata13047">
    <rdf:RDF>
      <cc:Work
         rdf:about="">
        <dc:format>image/svg+xml</dc:format>
        <dc:type
           rdf:resource="http://purl.org/dc/dcmitype/StillImage" />
        <dc:title></dc:title>
      </cc:Work>
    </rdf:RDF>
  </metadata>
  <defs
     id="defs13045" />
  <sodipodi:namedview
     pagecolor="#ffffff"
     bordercolor="#666666"
     borderopacity="1"
     objecttolerance="10"
     gridtolerance="10"
     guidetolerance="10"
     inkscape:pageopacity="0"
     inkscape:pageshadow="2"
     inkscape:window-width="1366"
     inkscape:window-height="706"
     id="namedview13043"
     showgrid="false"
     fit-margin-top="0"
     fit-margin-left="0"
     fit-margin-right="0"
     fit-margin-bottom="0"
     inkscape:zoom="0.21728802"
     inkscape:cx="-63.944003"
     inkscape:cy="-87.461968"
     inkscape:window-x="-8"
     inkscape:window-y="-8"
     inkscape:window-maximized="1"
     inkscape:current-layer="svg13038" />
  <g
     style="display:inline"
     transform="matrix(7.6729086,0,0,7.6729086,104.43432,108.34869)"
     id="g4823-9-4-6-1-0-6">
    <path
       style="fill:#ffffff"
       inkscape:connector-curvature="0"
       id="path1-7-9-6-4-7-5-3"
       transform="matrix(0.8125,0,0,0.8125,11.141782,11)"
       d="m 11.623993,16.419998 0,1.830002 1.559996,0 c 1.877991,0 3.354004,-0.610001 4.428009,-1.830002 z m 0,-5.86499 0,2.610001 7.924987,0 c 0.101013,-0.475007 0.151001,-0.960007 0.151001,-1.450013 0,-0.36 -0.04199,-0.744995 -0.125,-1.159988 z m 0,-5.0250092 0,1.7649994 6.213988,0 C 16.764983,6.1200027 15.213988,5.5299988 13.183989,5.5299988 z M 3.4979857,0 14.592986,0 c 3.588989,0 6.436005,0.625 8.541992,1.8850021 2.105011,1.2549973 3.552002,3.0599976 4.339997,5.4099961 l 4.176025,0 0,3.2799988 -3.522003,0 c 0.017,0.105011 0.03299,0.255005 0.04999,0.460007 0.017,0.199997 0.02499,0.375 0.02499,0.524994 0,0.294998 -0.01199,0.565002 -0.03799,0.800003 -0.02499,0.240005 -0.05399,0.505004 -0.08798,0.805008 l 3.572998,0 0,3.254989 -4.705017,0 c -0.53598,1.13501 -1.233002,2.154999 -2.087982,3.070007 -0.855011,0.914994 -1.845002,1.694993 -2.969025,2.330002 -1.122986,0.644989 -2.360992,1.134995 -3.710999,1.485001 -1.350982,0.349991 -2.787994,0.524994 -4.315002,0.524994 l -2.238982,0 0,8.169998 -8.1260073,0 0,-15.580002 -3.4979857,0 0,-3.254989 3.4979857,0 0,-2.610001 -3.4979857,0 0,-3.2600098 3.4979857,0 z" />
  </g>
  <path
     sodipodi:type="arc"
     style="fill:#73d216;fill-opacity:1;fill-rule:nonzero;stroke:none;display:inline"
     id="path4337-1-9-9-0-4-4-7-1-7"
     sodipodi:cx="409.11179"
     sodipodi:cy="498.79858"
     sodipodi:rx="34.345188"
     sodipodi:ry="34.345188"
     d="m 443.45697,498.79858 a 34.345188,34.345188 0 1 1 -68.69037,0 34.345188,34.345188 0 1 1 68.69037,0 z"
     transform="matrix(9.190593,0,0,8.8422018,-3444.3273,-4106.7907)" />
  <path
     style="fill:#73bc07;fill-opacity:1;fill-rule:nonzero;stroke:none;display:inline"
     d="m 318.32081,1.9048103 c -174.3296,0 -315.8803129,135.7177597 -315.8803129,303.4389597 0,70.55122 25.6615609,135.59141 67.6105019,187.14827 L 565.50707,117.11372 C 507.68977,46.951937 418.61495,1.9048103 318.32081,1.9048103 z"
     id="path4337-1-9-9-0-9-1-3-4-0-5-2-2-5"
     inkscape:connector-curvature="0" />
  <g
     id="g13335"
     transform="matrix(12.972684,0,0,12.972684,21.916449,-10.624145)">
    <path
       d="m 11.623993,16.419998 0,1.830002 1.559996,0 c 1.877991,0 3.354004,-0.610001 4.428009,-1.830002 z m 0,-5.86499 0,2.610001 7.924987,0 c 0.101013,-0.475007 0.151001,-0.960007 0.151001,-1.450013 0,-0.36 -0.04199,-0.744995 -0.125,-1.159988 z m 0,-5.0250092 0,1.7649994 6.213988,0 C 16.764983,6.1200027 15.213988,5.5299988 13.183989,5.5299988 z M 3.4979857,0 14.592986,0 c 3.588989,0 6.436005,0.625 8.541992,1.8850021 2.105011,1.2549973 3.552002,3.0599976 4.339997,5.4099961 l 4.176025,0 0,3.2799988 -3.522003,0 c 0.017,0.105011 0.03299,0.255005 0.04999,0.460007 0.017,0.199997 0.02499,0.375 0.02499,0.524994 0,0.294998 -0.01199,0.565002 -0.03799,0.800003 -0.02499,0.240005 -0.05399,0.505004 -0.08798,0.805008 l 3.572998,0 0,3.254989 -4.705017,0 c -0.53598,1.13501 -1.233002,2.154999 -2.087982,3.070007 -0.855011,0.914994 -1.845002,1.694993 -2.969025,2.330002 -1.122986,0.644989 -2.360992,1.134995 -3.710999,1.485001 -1.350982,0.349991 -2.787994,0.524994 -4.315002,0.524994 l -2.238982,0 0,8.169998 -8.1260073,0 0,-15.580002 -3.4979857,0 0,-3.254989 3.4979857,0 0,-2.610001 -3.4979857,0 0,-3.2600098 3.4979857,0 z"
       transform="matrix(0.8125,0,0,0.8125,11.141782,11)"
       id="path1"
       inkscape:connector-curvature="0"
       style="fill:#ffffff" />
  </g>
</svg>
