<?xml version="1.0" encoding="UTF-8" standalone="no"?>
<svg
   xmlns:dc="http://purl.org/dc/elements/1.1/"
   xmlns:cc="http://creativecommons.org/ns#"
   xmlns:rdf="http://www.w3.org/1999/02/22-rdf-syntax-ns#"
   xmlns:svg="http://www.w3.org/2000/svg"
   xmlns="http://www.w3.org/2000/svg"
   xmlns:sodipodi="http://sodipodi.sourceforge.net/DTD/sodipodi-0.dtd"
   xmlns:inkscape="http://www.inkscape.org/namespaces/inkscape"
   height="750"
   viewBox="0 0 750 750"
   width="750"
   id="svg7177"
   version="1.1"
   inkscape:version="0.48.5 r10040"
   sodipodi:docname="icon-plain-color-stock-return.svg"
   style="fill:#000000">
  <metadata
     id="metadata7187">
    <rdf:RDF>
      <cc:Work
         rdf:about="">
        <dc:format>image/svg+xml</dc:format>
        <dc:type
           rdf:resource="http://purl.org/dc/dcmitype/StillImage" />
        <dc:title />
      </cc:Work>
    </rdf:RDF>
  </metadata>
  <defs
     id="defs7185" />
  <sodipodi:namedview
     pagecolor="#ffffff"
     bordercolor="#666666"
     borderopacity="1"
     objecttolerance="10"
     gridtolerance="10"
     guidetolerance="10"
     inkscape:pageopacity="0"
     inkscape:pageshadow="2"
     inkscape:window-width="793"
     inkscape:window-height="609"
     id="namedview7183"
     showgrid="false"
     inkscape:zoom="0.10864401"
     inkscape:cx="11"
     inkscape:cy="8.2711862"
     inkscape:window-x="0"
     inkscape:window-y="0"
     inkscape:window-maximized="0"
     inkscape:current-layer="svg7177"
     fit-margin-top="0"
     fit-margin-left="0"
     fit-margin-right="0"
     fit-margin-bottom="0" />
  <path
     d="m 225,600 c -41.25,0 -74.625,33.75 -74.625,75 0,41.25 33.375,75 74.625,75 41.25,0 75,-33.75 75,-75 0,-41.25 -33.75,-75 -75,-75 z M 0,0 V 75 H 75 L 210,359.625 159.375,451.5 c -6,10.5 -9.375,22.875 -9.375,36 0,41.25 33.75,75 75,75 h 450 v -75 H 240.75 c -5.25,0 -9.375,-4.125 -9.375,-9.375 l 1.125,-4.5 33.75,-61.125 h 279.375 c 28.125,0 52.875,-15.375 65.625,-38.625 L 745.5,130.5 c 3,-5.25 4.5,-11.625 4.5,-18 C 750,91.875 733.125,75 712.5,75 H 157.875 L 122.625,0 H 0 z m 600,600 c -41.25,0 -74.625,33.75 -74.625,75 0,41.25 33.375,75 74.625,75 41.25,0 75,-33.75 75,-75 0,-41.25 -33.75,-75 -75,-75 z"
     id="path7179"
     style="fill:#f1c40f;fill-opacity:1"
     inkscape:export-filename="C:\Users\a.saraswati\Documents\IDSP\Design\assets\icon-idsp\icon-plain-color\icon-plain-color-stock-return.png"
     inkscape:export-xdpi="270"
     inkscape:export-ydpi="270"
     inkscape:connector-curvature="0" />
  <path
     d="m -1,728 h 24 v 24 H -1 z"
     id="path7181"
     inkscape:connector-curvature="0"
     style="fill:none" />
</svg>
