<?xml version="1.0" encoding="UTF-8" standalone="no"?>
<!-- Created with Inkscape (http://www.inkscape.org/) -->

<svg
   xmlns:dc="http://purl.org/dc/elements/1.1/"
   xmlns:cc="http://creativecommons.org/ns#"
   xmlns:rdf="http://www.w3.org/1999/02/22-rdf-syntax-ns#"
   xmlns:svg="http://www.w3.org/2000/svg"
   xmlns="http://www.w3.org/2000/svg"
   xmlns:sodipodi="http://sodipodi.sourceforge.net/DTD/sodipodi-0.dtd"
   xmlns:inkscape="http://www.inkscape.org/namespaces/inkscape"
   width="750"
   height="603.77808"
   id="svg5858"
   version="1.1"
   inkscape:version="0.48.5 r10040"
   sodipodi:docname="icon-plain-color-target.svg"
   inkscape:export-filename="C:\Users\a.saraswati\Documents\IDSP\Design\assets\icon-idsp\icon-edit-round-flat\icon-edit-round-flat-logout.png"
   inkscape:export-xdpi="148.05"
   inkscape:export-ydpi="148.05">
  <defs
     id="defs5860" />
  <sodipodi:namedview
     id="base"
     pagecolor="#ffffff"
     bordercolor="#666666"
     borderopacity="1.0"
     inkscape:pageopacity="0.0"
     inkscape:pageshadow="2"
     inkscape:zoom="0.49497475"
     inkscape:cx="13.806177"
     inkscape:cy="9.2102881"
     inkscape:document-units="px"
     inkscape:current-layer="layer1"
     showgrid="false"
     inkscape:window-width="1366"
     inkscape:window-height="706"
     inkscape:window-x="-8"
     inkscape:window-y="-8"
     inkscape:window-maximized="1"
     fit-margin-top="0"
     fit-margin-left="0"
     fit-margin-right="0"
     fit-margin-bottom="0" />
  <metadata
     id="metadata5863">
    <rdf:RDF>
      <cc:Work
         rdf:about="">
        <dc:format>image/svg+xml</dc:format>
        <dc:type
           rdf:resource="http://purl.org/dc/dcmitype/StillImage" />
        <dc:title />
      </cc:Work>
    </rdf:RDF>
  </metadata>
  <g
     inkscape:label="Layer 1"
     inkscape:groupmode="layer"
     id="layer1"
     transform="translate(-543.53,-74.843169)">
    <path
       style="fill:#1abc9c;fill-opacity:1;display:inline"
       d="m 808.59798,676.61698 c -36.11111,-4.16567 -65.09766,-12.93407 -99.65417,-30.1445 -64.57403,-32.15896 -113.96838,-84.82067 -142.83555,-152.2787 -8.91519,-20.82805 -17.45868,-51.83666 -20.66554,-74.9825 -2.55029,-18.44406 -2.55029,-66.58361 0,-85.02794 6.82069,-49.2378 27.11996,-98.36383 57.7235,-139.6911 14.51227,-19.60418 44.03059,-48.48573 64.72326,-63.33171 20.53802,-14.73501 58.23084,-33.904825 81.6176,-41.510404 96.88953,-31.505106 202.31442,-12.087045 282.73012,52.074054 5.8331,4.657 11.0694,9.66779 11.6283,11.13557 1.3023,3.43747 -11.8182,23.69794 -20.7958,32.07784 -15.8444,14.79524 -12.9821,14.67234 -30.13418,1.29414 -53.87092,-42.02182 -118.66472,-59.62565 -183.75695,-49.92259 -27.71411,4.13121 -47.96455,10.4847 -72.80823,22.84496 -108.02673,53.74504 -160.23454,177.32477 -123.48586,292.30133 14.77815,46.23768 45.93517,89.78208 85.86357,120.00281 19.07296,14.43441 53.91163,32.08435 75.5376,38.26583 127.36556,36.40982 256.69265,-31.83311 298.59895,-157.56215 9.4822,-28.44448 12.5209,-51.51164 11.1426,-84.60851 -0.6511,-15.16395 -1.6007,-30.54793 -2.2247,-34.18698 -1.031,-6.41807 -0.8411,-6.71271 6.8586,-9.81186 10.931,-4.39844 38.4525,-7.74937 44.9341,-5.47065 4.7018,1.65498 5.2308,2.89485 7.4121,17.34689 3.6518,24.15564 1.9534,78.59171 -3.1851,102.65131 -32.8419,153.55168 -174.72785,256.35627 -329.2188,238.5354 z m 8.22877,-118.47155 c -39.60555,-6.31904 -78.15571,-26.51168 -105.22412,-55.1203 -22.6081,-23.89573 -36.74596,-49.34416 -45.18093,-81.33111 -3.94482,-14.95097 -4.60681,-21.41814 -4.60681,-44.99671 0,-23.5783 0.67827,-30.04574 4.60681,-44.99617 14.31421,-54.28088 50.17571,-97.45548 100.61731,-121.13308 21.3438,-10.01859 42.09344,-14.95314 67.61539,-16.08097 24.96306,-1.0988 42.53297,1.24801 66.2887,8.87069 14.97892,4.80703 42.34576,18.68037 48.00525,24.33687 1.81776,1.83404 -3.41577,5.51298 -26.3413,18.44081 -19.00784,10.71992 -29.91985,15.8509 -32.46472,15.26488 -2.11621,-0.48564 -10.33684,-2.62355 -18.29431,-4.74871 -54.04728,-14.44552 -113.72691,13.43518 -139.06437,64.9658 -9.21905,18.74956 -12.64295,33.66716 -12.64295,55.07988 0,48.37233 25.55179,89.38705 69.25952,111.18069 35.73669,17.81897 77.82743,16.63417 114.76602,-3.23074 5.26609,-2.83083 16.65831,-12.17061 25.31847,-20.7529 12.75419,-12.64295 17.18194,-18.56371 23.32707,-31.20721 4.17271,-8.58201 9.03455,-21.6303 10.81162,-28.99577 l 3.23128,-13.39204 28.54703,-16.17512 28.55249,-16.17511 0.9224,9.37424 c 1.4108,14.41595 -1.8991,43.17922 -6.9346,60.71006 -8.8664,30.70664 -24.32549,56.25274 -48.36881,79.91867 -23.29723,22.93204 -48.74321,37.28017 -81.89977,46.17935 -13.96422,3.74812 -57.16732,6.19613 -70.84124,4.014 z m -2.14333,-126.27735 c -14.42817,-7.3009 -21.78876,-14.57929 -29.39895,-29.07907 -4.50642,-8.58826 -5.02462,-11.453 -5.02462,-27.9271 -0.003,-16.34495 0.54261,-19.49267 5.06261,-28.71389 6.18311,-12.63915 18.2536,-24.1494 32.09845,-30.61331 8.6683,-4.04494 12.94411,-4.8415 25.92349,-4.82766 13.15301,0.0106 17.27961,0.81664 26.86764,5.21427 l 11.32982,5.19826 74.53375,-41.90407 c 79.41729,-44.6508 94.21989,-54.72256 110.34909,-75.07528 9.1757,-11.57455 25.6034,-41.1143 25.6034,-46.03691 0,-1.79335 132.5692,-77.876537 135.6974,-77.876537 0.5698,0 -4.2758,20.730107 -10.7763,46.067297 -6.4979,25.33692 -11.4248,46.45662 -10.9527,46.93249 0.4883,0.47479 20.0768,6.26179 43.5612,12.85756 23.4844,6.59605 43.2655,12.53064 43.96,13.18748 0.7054,0.65927 -29.0815,18.2612 -66.1666,39.11855 l -67.4309,37.9229 -7.8896,-1.94257 c -13.9263,-3.4296 -46.3801,-2.44177 -62.8947,1.91544 -21.8891,5.77642 -26.2761,7.95773 -107.03099,53.25071 l -74.26245,41.65285 -1.00384,10.65915 c -1.92628,20.50356 -15.63005,40.37145 -34.63518,50.20338 -8.03343,4.15536 -12.59412,5.12148 -27.03585,5.72569 -16.96489,0.71082 -17.67572,0.57246 -30.4896,-5.91045 z"
       id="path3010-9-4"
       inkscape:connector-curvature="0" />
  </g>
</svg>
