<?xml version="1.0" encoding="UTF-8" standalone="no"?>
<!-- Created with Inkscape (http://www.inkscape.org/) -->

<svg
   xmlns:dc="http://purl.org/dc/elements/1.1/"
   xmlns:cc="http://creativecommons.org/ns#"
   xmlns:rdf="http://www.w3.org/1999/02/22-rdf-syntax-ns#"
   xmlns:svg="http://www.w3.org/2000/svg"
   xmlns="http://www.w3.org/2000/svg"
   xmlns:sodipodi="http://sodipodi.sourceforge.net/DTD/sodipodi-0.dtd"
   xmlns:inkscape="http://www.inkscape.org/namespaces/inkscape"
   width="158.32666mm"
   height="107.95mm"
   viewBox="0 0 560.99998 382.49999"
   id="svg2"
   version="1.1"
   inkscape:version="0.91 r13725"
   sodipodi:docname="view.svg">
  <defs
     id="defs4" />
  <sodipodi:namedview
     id="base"
     pagecolor="#ffffff"
     bordercolor="#666666"
     borderopacity="1.0"
     inkscape:pageopacity="0.0"
     inkscape:pageshadow="2"
     inkscape:zoom="0.49497475"
     inkscape:cx="460.1646"
     inkscape:cy="89.740883"
     inkscape:document-units="px"
     inkscape:current-layer="g3378"
     showgrid="false"
     fit-margin-top="0"
     fit-margin-left="0"
     fit-margin-right="0"
     fit-margin-bottom="0"
     inkscape:window-width="1600"
     inkscape:window-height="838"
     inkscape:window-x="-8"
     inkscape:window-y="-8"
     inkscape:window-maximized="1" />
  <metadata
     id="metadata7">
    <rdf:RDF>
      <cc:Work
         rdf:about="">
        <dc:format>image/svg+xml</dc:format>
        <dc:type
           rdf:resource="http://purl.org/dc/dcmitype/StillImage" />
        <dc:title></dc:title>
      </cc:Work>
    </rdf:RDF>
  </metadata>
  <g
     inkscape:label="Layer 1"
     inkscape:groupmode="layer"
     id="layer1"
     transform="translate(-88.071431,-206.82649)">
    <g
       id="g3378"
       transform="translate(88.071431,117.57649)">
      <g
         id="g3337"
         style="fill:#62bb47;fill-opacity:1">
        <g
           id="visibility"
           style="fill:#62bb47;fill-opacity:1">
          <path
             id="path3340"
             d="M 280.5,89.25 C 153,89.25 43.35,168.3 0,280.5 43.35,392.7 153,471.75 280.5,471.75 408,471.75 517.65,392.7 561,280.5 517.65,168.3 408,89.25 280.5,89.25 Z m 0,318.75 C 209.1,408 153,351.9 153,280.5 153,209.1 209.1,153 280.5,153 351.9,153 408,209.1 408,280.5 408,351.9 351.9,408 280.5,408 Z m 0,-204 c -43.35,0 -76.5,33.15 -76.5,76.5 0,43.35 33.15,76.5 76.5,76.5 43.35,0 76.5,-33.15 76.5,-76.5 0,-43.35 -33.15,-76.5 -76.5,-76.5 z"
             inkscape:connector-curvature="0"
             style="fill:#62bb47;fill-opacity:1" />
        </g>
      </g>
      <g
         id="g3342" />
      <g
         id="g3344" />
      <g
         id="g3346" />
      <g
         id="g3348" />
      <g
         id="g3350" />
      <g
         id="g3352" />
      <g
         id="g3354" />
      <g
         id="g3356" />
      <g
         id="g3358" />
      <g
         id="g3360" />
      <g
         id="g3362" />
      <g
         id="g3364" />
      <g
         id="g3366" />
      <g
         id="g3368" />
      <g
         id="g3370" />
    </g>
  </g>
</svg>
