<?xml version="1.0" encoding="UTF-8" standalone="no"?>
<!-- Created with Inkscape (http://www.inkscape.org/) -->

<svg
   xmlns:dc="http://purl.org/dc/elements/1.1/"
   xmlns:cc="http://creativecommons.org/ns#"
   xmlns:rdf="http://www.w3.org/1999/02/22-rdf-syntax-ns#"
   xmlns:svg="http://www.w3.org/2000/svg"
   xmlns="http://www.w3.org/2000/svg"
   xmlns:sodipodi="http://sodipodi.sourceforge.net/DTD/sodipodi-0.dtd"
   xmlns:inkscape="http://www.inkscape.org/namespaces/inkscape"
   width="750"
   height="749.99976"
   id="svg3009"
   version="1.1"
   inkscape:version="0.48.5 r10040"
   sodipodi:docname="icon-edit-round-grad-target.svg">
  <defs
     id="defs3011" />
  <sodipodi:namedview
     id="base"
     pagecolor="#ffffff"
     bordercolor="#666666"
     borderopacity="1.0"
     inkscape:pageopacity="0.0"
     inkscape:pageshadow="2"
     inkscape:zoom="0.49497474"
     inkscape:cx="427.11199"
     inkscape:cy="485.96474"
     inkscape:document-units="px"
     inkscape:current-layer="layer1"
     showgrid="true"
     inkscape:window-width="1366"
     inkscape:window-height="706"
     inkscape:window-x="-8"
     inkscape:window-y="-8"
     inkscape:window-maximized="1"
     showguides="false"
     showborder="true"
     fit-margin-top="0"
     fit-margin-left="0"
     fit-margin-right="0"
     fit-margin-bottom="0">
    <inkscape:grid
       type="xygrid"
       id="grid10341"
       empspacing="5"
       visible="true"
       enabled="true"
       snapvisiblegridlinesonly="true"
       originx="-4.5366835px"
       originy="-168.5061px" />
  </sodipodi:namedview>
  <metadata
     id="metadata3014">
    <rdf:RDF>
      <cc:Work
         rdf:about="">
        <dc:format>image/svg+xml</dc:format>
        <dc:type
           rdf:resource="http://purl.org/dc/dcmitype/StillImage" />
        <dc:title />
      </cc:Work>
    </rdf:RDF>
  </metadata>
  <g
     inkscape:label="Layer 1"
     inkscape:groupmode="layer"
     id="layer1"
     transform="translate(-4.5366835,-133.85629)">
    <path
       sodipodi:type="arc"
       style="fill:#1abc9c;fill-opacity:1;fill-rule:nonzero;stroke:none;display:inline"
       id="path4337-2"
       sodipodi:cx="409.11179"
       sodipodi:cy="498.79858"
       sodipodi:rx="34.345188"
       sodipodi:ry="34.345188"
       d="m 443.45697,498.79858 c 0,18.96833 -15.37686,34.34519 -34.34518,34.34519 -18.96833,0 -34.34519,-15.37686 -34.34519,-34.34519 0,-18.96832 15.37686,-34.34518 34.34519,-34.34518 18.96832,0 34.34518,15.37686 34.34518,34.34518 z"
       transform="matrix(10.91856,0,0,10.910003,-4087.3749,-4932.7441)" />
    <path
       style="fill:#1aad9c;fill-opacity:1;fill-rule:nonzero;stroke:none;display:inline"
       d="M 380.13673,133.85629 C 173.03,133.85629 4.8662802,301.3129 4.8662802,508.25734 c 0,87.04962 30.4867688,167.30029 80.3233028,230.91403 L 673.79867,276.00856 C 605.10897,189.43882 499.28851,133.85629 380.13673,133.85629 z"
       id="path4337-1-9-9-0-9-1-3-4-0-5-9-4-2"
       inkscape:connector-curvature="0" />
    <path
       style="fill:#ffffff;display:inline"
       d="m 353.42859,719.50187 c -24.36955,-2.9196 -43.93092,-9.06508 -67.25094,-21.12727 -43.57516,-22.53912 -76.90865,-59.44799 -96.38878,-106.72723 -6.01462,-14.59761 -11.78164,-36.33055 -13.94567,-52.55271 -1.72317,-12.92692 -1.72317,-46.66632 0,-59.59346 4.60339,-34.50907 18.3023,-68.93997 38.95266,-97.90476 9.7959,-13.73994 29.71504,-33.98222 43.67798,-44.38717 13.8589,-10.32721 39.29505,-23.76284 55.0786,-29.09335 65.38282,-22.08083 136.52751,-8.47137 190.79305,36.49712 3.9384,3.26387 7.47067,6.7757 7.84924,7.80442 0.88624,2.40919 -7.97755,16.60914 -14.03389,22.48232 -10.69388,10.36951 -8.76324,10.28344 -20.33698,0.90763 -36.35292,-29.45171 -80.07903,-41.78961 -124.00376,-34.98916 -18.70266,2.89548 -32.36765,7.34847 -49.13329,16.01139 -72.89994,37.66809 -108.13177,124.28119 -83.33266,204.86437 9.97294,32.40656 30.99899,62.92543 57.94443,84.10609 12.87024,10.11665 36.38211,22.48681 50.97489,26.81934 85.94907,25.51832 173.22299,-22.31083 201.50297,-110.43019 6.39789,-19.93581 8.44841,-36.10289 7.5202,-59.29935 -0.42359,-10.62792 -1.1001,-21.41003 -1.50313,-23.9606 -0.70942,-4.49827 -0.5696,-4.70478 4.62683,-6.8767 7.37643,-3.08278 25.94983,-5.43132 30.32269,-3.8343 3.17206,1.15963 3.53044,2.02883 5.00329,12.15788 2.46215,16.92992 1.3201,55.08237 -2.15089,71.94501 -22.16182,107.61927 -117.91199,179.67172 -222.16582,167.18153 z m 5.55276,-83.03294 c -26.72748,-4.42864 -52.74122,-18.5812 -71.00795,-38.63188 -15.25757,-16.74775 -24.7985,-34.58383 -30.49088,-57.00229 -2.66063,-10.47864 -3.10765,-15.01129 -3.10765,-31.53673 0,-16.52542 0.44827,-21.05807 3.10765,-31.5365 9.65997,-38.04351 33.86131,-68.30335 67.90111,-84.8982 14.40258,-7.02169 28.40521,-10.48013 45.62838,-11.27051 16.84604,-0.77096 28.70192,0.8756 44.73161,6.2172 10.10929,3.36896 28.57772,13.09244 32.39726,17.05679 1.23789,1.28564 -2.3057,3.86398 -17.77548,12.92457 -12.8285,7.51333 -20.19222,11.1095 -21.90859,10.69861 -1.42089,-0.33957 -6.97716,-1.83878 -12.34548,-3.32816 -36.47257,-10.12435 -76.74744,9.41639 -93.84518,45.5325 -6.22126,13.14091 -8.53169,23.59607 -8.53169,38.6037 0,33.90257 17.24167,62.64845 46.73731,77.92283 24.11684,12.4887 52.52122,11.65835 77.44843,-2.26439 3.55365,-1.984 11.24187,-8.52989 17.08498,-14.54487 8.60861,-8.86111 11.59535,-13.01084 15.74223,-21.87217 2.81505,-6.01498 6.09853,-15.15992 7.29692,-20.32213 l 2.17883,-9.38607 19.26648,-11.33672 19.26649,-11.33651 0.62099,6.57003 c 0.95206,10.1036 -1.26461,30.26302 -4.68008,42.54967 -5.98171,21.5213 -16.41464,39.42571 -32.6397,56.01243 -15.72145,16.07226 -32.89342,26.12847 -55.26797,32.36555 -9.4235,2.62702 -38.57698,4.34279 -47.80637,2.81325 z m -1.44761,-88.50354 c -9.73709,-5.11695 -14.70259,-10.2181 -19.83917,-20.38067 -3.04247,-6.01926 -3.39039,-8.02696 -3.39121,-19.57319 -10e-4,-11.45567 0.3763,-13.66176 3.41773,-20.12459 4.17198,-8.85834 12.31689,-16.92543 21.66124,-21.45594 5.84743,-2.83482 8.73402,-3.39307 17.4917,-3.38346 8.87839,0.006 11.66238,0.57234 18.13371,3.65447 l 7.64523,3.64336 50.29508,-29.36926 c 53.59252,-31.29433 63.58232,-38.3532 74.46865,-52.61786 6.19105,-8.11216 17.27649,-28.81551 17.27649,-32.2656 0,-1.2579 89.46214,-54.58114 91.57214,-54.58114 0.38651,0 -2.88411,14.52905 -7.27024,32.28696 -4.38561,17.75791 -7.71224,32.55989 -7.39232,32.89347 0.32083,0.33317 13.54785,4.38871 29.39531,9.01147 15.84774,4.62299 29.19735,8.78232 29.66613,9.24277 0.46879,0.46127 -19.62442,12.79855 -44.65138,27.41688 l -45.50378,26.57887 -5.32398,-1.36253 c -9.39776,-2.40363 -31.29873,-1.71062 -42.44271,1.34332 -14.77332,4.04848 -17.7323,5.57737 -72.22713,37.32166 l -50.11578,29.1931 -0.67446,7.47061 c -1.29751,14.37036 -10.54767,28.29507 -23.37349,35.18608 -5.42076,2.91233 -8.49817,3.58932 -18.24349,4.01283 -11.44976,0.49759 -11.92867,0.40148 -20.57447,-4.14248 z"
       id="path3010-9"
       inkscape:connector-curvature="0" />
  </g>
</svg>
