<?xml version="1.0" encoding="UTF-8" standalone="no"?>
<!-- Created with Inkscape (http://www.inkscape.org/) -->

<svg
   xmlns:dc="http://purl.org/dc/elements/1.1/"
   xmlns:cc="http://creativecommons.org/ns#"
   xmlns:rdf="http://www.w3.org/1999/02/22-rdf-syntax-ns#"
   xmlns:svg="http://www.w3.org/2000/svg"
   xmlns="http://www.w3.org/2000/svg"
   xmlns:sodipodi="http://sodipodi.sourceforge.net/DTD/sodipodi-0.dtd"
   xmlns:inkscape="http://www.inkscape.org/namespaces/inkscape"
   width="750"
   height="750"
   id="svg3009"
   version="1.1"
   inkscape:version="0.48.5 r10040"
   sodipodi:docname="icon-edit-round-grad-logout.svg"
   inkscape:export-filename="C:\Users\a.saraswati\Documents\IDSP\Design\assets\icon-idsp\icon-edit-round\icon-edit-round-logout.png"
   inkscape:export-xdpi="148.05"
   inkscape:export-ydpi="148.05">
  <defs
     id="defs3011" />
  <sodipodi:namedview
     id="base"
     pagecolor="#ffffff"
     bordercolor="#666666"
     borderopacity="1.0"
     inkscape:pageopacity="0.0"
     inkscape:pageshadow="2"
     inkscape:zoom="0.35"
     inkscape:cx="134.04587"
     inkscape:cy="255.61628"
     inkscape:document-units="px"
     inkscape:current-layer="layer1"
     showgrid="true"
     inkscape:window-width="719"
     inkscape:window-height="561"
     inkscape:window-x="132"
     inkscape:window-y="87"
     inkscape:window-maximized="0"
     showguides="false"
     fit-margin-top="0"
     fit-margin-left="0"
     fit-margin-right="0"
     fit-margin-bottom="0">
    <inkscape:grid
       type="xygrid"
       id="grid2985"
       empspacing="5"
       visible="true"
       enabled="true"
       snapvisiblegridlinesonly="true"
       originx="-591.89528px"
       originy="-704.71362px" />
  </sodipodi:namedview>
  <metadata
     id="metadata3014">
    <rdf:RDF>
      <cc:Work
         rdf:about="">
        <dc:format>image/svg+xml</dc:format>
        <dc:type
           rdf:resource="http://purl.org/dc/dcmitype/StillImage" />
        <dc:title />
      </cc:Work>
    </rdf:RDF>
  </metadata>
  <g
     inkscape:label="Layer 1"
     inkscape:groupmode="layer"
     id="layer1"
     transform="translate(-591.89528,402.35143)">
    <path
       sodipodi:type="arc"
       style="fill:#e74c3c;fill-opacity:1;fill-rule:nonzero;stroke:none;display:inline"
       id="path4337-1-9-9-0-9-1-3"
       sodipodi:cx="409.11179"
       sodipodi:cy="498.79858"
       sodipodi:rx="34.345188"
       sodipodi:ry="34.345188"
       d="m 443.45697,498.79858 c 0,18.96833 -15.37686,34.34519 -34.34518,34.34519 -18.96833,0 -34.34519,-15.37686 -34.34519,-34.34519 0,-18.96832 15.37686,-34.34518 34.34519,-34.34518 18.96832,0 34.34518,15.37686 34.34518,34.34518 z"
       transform="matrix(10.91856,0,0,10.91856,-3500.0163,-5473.5137)" />
    <path
       style="fill:#e7313c;fill-opacity:1;fill-rule:nonzero;stroke:none;display:inline"
       d="m 967.8274,-401.50139 c -207.10673,0 -375.27046,167.58815 -375.27046,374.6949 0,87.117891 30.48676,167.43149 80.3233,231.09512 l 588.60906,-463.52604 c -68.6897,-86.63764 -174.5102,-142.26398 -293.6619,-142.26398 z"
       id="path4337-1-9-9-0-9-1-3-4"
       inkscape:connector-curvature="0" />
    <path
       inkscape:connector-curvature="0"
       d="M 986.98812,-218.74837 H 945.86259 V -5.0187763 h 41.12553 V -218.74837 z m 99.31818,46.37933 -29.1992,30.3496 c 32.4892,27.14365 53.2576,68.820925 53.2576,115.627705 0,82.713351 -64.3614,149.610715 -143.93934,149.610715 -79.57791,0 -143.93936,-66.897364 -143.93936,-149.610715 0,-46.80678 20.76839,-88.484055 53.05193,-115.841435 l -28.99349,-30.13587 c -39.89177,35.26538 -65.18397,87.415397 -65.18397,145.977305 0,106.223605 82.86794,192.356625 185.06489,192.356625 102.19694,0 185.06484,-86.13302 185.06484,-192.356625 0,-58.561908 -25.2922,-110.711925 -65.1839,-145.977305 z"
       id="path6"
       style="fill:#ffffff;display:inline" />
  </g>
</svg>
