<?xml version="1.0" encoding="UTF-8" standalone="no"?>
<svg
   xmlns:dc="http://purl.org/dc/elements/1.1/"
   xmlns:cc="http://creativecommons.org/ns#"
   xmlns:rdf="http://www.w3.org/1999/02/22-rdf-syntax-ns#"
   xmlns:svg="http://www.w3.org/2000/svg"
   xmlns="http://www.w3.org/2000/svg"
   xmlns:sodipodi="http://sodipodi.sourceforge.net/DTD/sodipodi-0.dtd"
   xmlns:inkscape="http://www.inkscape.org/namespaces/inkscape"
   height="749.99982"
   width="749.99994"
   viewBox="0 0 749.99994 749.99982"
   id="svg13038"
   version="1.1"
   inkscape:version="0.48.5 r10040"
   sodipodi:docname="icon-edit-round-grad-visited.svg"
   inkscape:export-filename="C:\Users\a.saraswati\Documents\IDSP\Design\assets\icon-idsp\icon-edit-round-gradient\icon-edit-round-grad-visited.png"
   inkscape:export-xdpi="8.3999996"
   inkscape:export-ydpi="8.3999996">
  <metadata
     id="metadata13047">
    <rdf:RDF>
      <cc:Work
         rdf:about="">
        <dc:format>image/svg+xml</dc:format>
        <dc:type
           rdf:resource="http://purl.org/dc/dcmitype/StillImage" />
        <dc:title></dc:title>
      </cc:Work>
    </rdf:RDF>
  </metadata>
  <defs
     id="defs13045" />
  <sodipodi:namedview
     pagecolor="#ffffff"
     bordercolor="#666666"
     borderopacity="1"
     objecttolerance="10"
     gridtolerance="10"
     guidetolerance="10"
     inkscape:pageopacity="0"
     inkscape:pageshadow="2"
     inkscape:window-width="1366"
     inkscape:window-height="706"
     id="namedview13043"
     showgrid="false"
     fit-margin-top="0"
     fit-margin-left="0"
     fit-margin-right="0"
     fit-margin-bottom="0"
     inkscape:zoom="0.21728802"
     inkscape:cx="0.65836813"
     inkscape:cy="-22.16827"
     inkscape:window-x="-8"
     inkscape:window-y="-8"
     inkscape:window-maximized="1"
     inkscape:current-layer="svg13038" />
  <path
     sodipodi:type="arc"
     style="fill:#729fcf;fill-opacity:1;fill-rule:nonzero;stroke:none;display:inline"
     id="path4337-1-5-7"
     sodipodi:cx="409.11179"
     sodipodi:cy="498.79858"
     sodipodi:rx="34.345188"
     sodipodi:ry="34.345188"
     d="m 443.45697,498.79858 a 34.345188,34.345188 0 1 1 -68.69037,0 34.345188,34.345188 0 1 1 68.69037,0 z"
     transform="matrix(10.906392,0,0,10.909145,-4086.5157,-5066.1429)" />
  <path
     style="fill:#728bcf;fill-opacity:1;fill-rule:nonzero;stroke:none;display:inline"
     d="M 374.85225,0 C 167.97632,0 0,167.44344 0,374.37161 0,461.41438 30.452784,541.65873 80.23378,605.26746 L 668.18698,142.1411 C 599.57382,55.57815 493.87123,0 374.85225,0 z"
     id="path4337-1-9-9-0-9-1-3-4-0-5-9-4-1"
     inkscape:connector-curvature="0" />
  <g
     transform="matrix(17.0393,0,0,17.715136,-36.031957,-54.97067)"
     id="g13040"
     style="fill:#ffffff;fill-opacity:1">
    <path
       style="fill:#ffffff;fill-opacity:1"
       inkscape:connector-curvature="0"
       id="path1"
       transform="matrix(0.81171273,0,0,0.81171273,11.469179,11)"
       d="m 10.533749,22.974039 -6.5609631,0.775999 c 0.030001,0.528 0.085,1.273001 0.1929989,2.185001 0.1309996,1.24 0.7229967,4.095999 3.4089804,4.095999 0.1529999,0 0.3119984,-0.009 0.4739981,-0.028 1.9879877,-0.26 3.2379807,-1.182001 2.8389827,-4.831999 -0.108999,-0.923999 -0.244998,-1.675001 -0.353997,-2.197 z m 9.803503,-4.4e-5 c -0.109007,0.522949 -0.244991,1.276978 -0.353998,2.205994 -0.397971,3.640989 0.852004,4.562986 2.851964,4.82501 0.149991,0.01794 0.307978,0.026 0.460989,0.026 2.686928,0 3.27792,-2.856018 3.407922,-4.084043 0.109007,-0.919007 0.165006,-1.667969 0.195004,-2.196961 z m -0.739883,-2.098024 c 0.02985,9.48e-4 0.05984,0.0033 0.0899,0.007 l 8.361834,0.988952 c 0.503987,0.06006 0.882977,0.486023 0.882977,0.993042 0,0.052 -0.003,1.291016 -0.239985,3.304016 -0.381005,3.61096 -2.449963,5.862 -5.395889,5.862 -0.230006,0 -0.465993,-0.013 -0.707993,-0.04206 -5.284899,-0.690979 -4.763913,-5.464964 -4.592926,-7.034971 0.240992,-2.044007 0.59801,-3.302002 0.614001,-3.354004 0.125625,-0.442486 0.540387,-0.738201 0.98808,-0.724001 z m -8.324383,-1.17e-4 c 0.444834,-0.01492 0.863191,0.281685 0.989752,0.724184 0.015,0.052 0.372998,1.310002 0.611997,3.345002 0.172999,1.576999 0.694996,6.352998 -4.5789739,7.041998 -0.2549982,0.031 -0.4909973,0.044 -0.7209959,0.044 -2.9459829,0 -5.0149708,-2.250997 -5.3959684,-5.874998 -0.2359982,-2 -0.2389984,-3.238998 -0.2389984,-3.290998 0,-0.507 0.3789978,-0.933001 0.8829946,-0.993 l 8.360952,-0.989001 c 0.02981,-0.0038 0.05959,-0.0062 0.08924,-0.0072 z M 7.1197681,2.0000431 C 6.5387716,2.0280429 5.1567793,2.495043 3.9637861,4.0560426 2.4837952,5.9920425 1.0728035,9.8910417 2.7517939,17.46804 4.5767832,17.162041 6.473772,16.919041 8.4777603,16.661041 L 10.030751,16.46104 c 0.08,-0.024 0.162999,-0.046 0.246999,-0.067 0.08,-0.02 0.199999,-0.05 0.239998,-0.071 -0.002,-0.004 0.02,-0.042 0.042,-0.126999 0.16,-0.462001 0.302999,-0.827001 0.446998,-1.191 0.586996,-1.493 1.093993,-2.782 0.922994,-5.1439991 C 11.556743,2.5650429 8.3327608,2.0000431 7.352767,2.0000431 z m 16.5844209,-0.00108 -0.184994,0.00104 c -0.979991,1e-7 -4.202919,0.5650023 -4.573914,7.8399642 -0.174984,2.3809807 0.331994,3.6699827 0.917981,5.1630247 0.14401,0.364013 0.288996,0.730957 0.424003,1.11499 0.05099,0.182007 0.07599,0.215027 0.07599,0.216003 0.01999,0.008 0.147,0.039 0.230006,0.06 0.08499,0.021 0.167996,0.04297 0.247981,0.06702 l 1.549988,0.199949 c 2.01296,0.258056 3.9149,0.502014 5.726875,0.807007 0.003,-0.007 0.005,-0.01398 0.007,-0.021 C 29.801052,9.8969707 28.389093,5.9939565 26.908135,4.0570063 25.715136,2.4949946 24.332167,2.0279538 23.704189,1.9989618 z M 7.352767,4.3434267e-5 C 8.7777586,4.3315877e-5 13.463732,0.70204321 13.925729,9.7380418 c 0.202999,2.7929992 -0.437998,4.4229992 -1.057994,5.9989982 -0.134999,0.342 -0.269999,0.687 -0.396998,1.047 -0.313998,1.202999 -1.255992,1.438 -1.70899,1.550999 -0.061,0.015 -0.120999,0.027 -0.174999,0.047 -0.067,0.024 -0.135999,0.041 -0.205999,0.05 L 8.7327585,18.64504 c -2.026988,0.260001 -3.9409771,0.505999 -5.7419662,0.810999 -0.106,0.021 -0.2269993,0.031 -0.343998,0.031 -0.8699951,0 -1.5899906,-0.600999 -1.83499048,-1.531999 C -1.0481853,9.5790414 0.63680649,5.1160425 2.3747959,2.8420431 3.9057865,0.83804319 5.8057756,0.0610433 7.0727682,0.00104338 z M 23.519195,0 l 0.23199,0 c 1.314976,0.06097411 3.214933,0.83795151 4.745908,2.8419794 1.738948,2.275024 3.422936,6.7369981 1.57196,15.0759856 -0.253993,0.968017 -0.97398,1.569031 -1.843958,1.569031 -0.115995,0 -0.238002,-0.01001 -0.362999,-0.03504 -1.782954,-0.302002 -3.697925,-0.546997 -5.725869,-0.807006 L 20.49124,18.432003 c -0.06998,-0.009 -0.138974,-0.026 -0.20599,-0.05005 -0.05398,-0.01996 -0.11398,-0.03198 -0.174007,-0.047 C 19.657272,18.221981 18.714298,17.986996 18.377299,16.70599 18.274304,16.421995 18.13829,16.076963 18.003313,15.733945 17.3833,14.157956 16.742322,12.52899 16.948311,9.7160014 17.408324,0.70196519 22.094205,0 23.519195,0 z" />
  </g>
</svg>
