<?xml version="1.0" encoding="UTF-8" standalone="no"?>
<svg
   xmlns:dc="http://purl.org/dc/elements/1.1/"
   xmlns:cc="http://creativecommons.org/ns#"
   xmlns:rdf="http://www.w3.org/1999/02/22-rdf-syntax-ns#"
   xmlns:svg="http://www.w3.org/2000/svg"
   xmlns="http://www.w3.org/2000/svg"
   xmlns:sodipodi="http://sodipodi.sourceforge.net/DTD/sodipodi-0.dtd"
   xmlns:inkscape="http://www.inkscape.org/namespaces/inkscape"
   height="750"
   viewBox="0 0 375 375"
   width="750"
   id="svg12025"
   version="1.1"
   inkscape:version="0.48.5 r10040"
   sodipodi:docname="icon-edit-round-grad-sync.svg"
   style="fill:#000000">
  <metadata
     id="metadata12035">
    <rdf:RDF>
      <cc:Work
         rdf:about="">
        <dc:format>image/svg+xml</dc:format>
        <dc:type
           rdf:resource="http://purl.org/dc/dcmitype/StillImage" />
        <dc:title />
      </cc:Work>
    </rdf:RDF>
  </metadata>
  <defs
     id="defs12033" />
  <sodipodi:namedview
     pagecolor="#ffffff"
     bordercolor="#666666"
     borderopacity="1"
     objecttolerance="10"
     gridtolerance="10"
     guidetolerance="10"
     inkscape:pageopacity="0"
     inkscape:pageshadow="2"
     inkscape:window-width="1366"
     inkscape:window-height="706"
     id="namedview12031"
     showgrid="false"
     fit-margin-top="0"
     fit-margin-left="0"
     fit-margin-right="0"
     fit-margin-bottom="0"
     inkscape:zoom="0.15364583"
     inkscape:cx="16.813216"
     inkscape:cy="-37.77657"
     inkscape:window-x="-8"
     inkscape:window-y="-8"
     inkscape:window-maximized="1"
     inkscape:current-layer="svg12025" />
  <path
     d="M -3.5933918,354.22727 H 20.406608 v 24 H -3.5933918 z"
     id="path12029"
     inkscape:connector-curvature="0"
     style="fill:none" />
  <g
     style="display:inline"
     transform="matrix(4.5577642,0,0,4.7373447,82.806542,66.895125)"
     id="g4823-9-4-6-1">
    <path
       style="fill:#ffffff"
       inkscape:connector-curvature="0"
       id="path1-7-9-6-4-7"
       transform="matrix(0.8125,0,0,0.8125,11.141782,11)"
       d="m 11.623993,16.419998 0,1.830002 1.559996,0 c 1.877991,0 3.354004,-0.610001 4.428009,-1.830002 z m 0,-5.86499 0,2.610001 7.924987,0 c 0.101013,-0.475007 0.151001,-0.960007 0.151001,-1.450013 0,-0.36 -0.04199,-0.744995 -0.125,-1.159988 z m 0,-5.0250092 0,1.7649994 6.213988,0 C 16.764983,6.1200027 15.213988,5.5299988 13.183989,5.5299988 z M 3.4979857,0 14.592986,0 c 3.588989,0 6.436005,0.625 8.541992,1.8850021 2.105011,1.2549973 3.552002,3.0599976 4.339997,5.4099961 l 4.176025,0 0,3.2799988 -3.522003,0 c 0.017,0.105011 0.03299,0.255005 0.04999,0.460007 0.017,0.199997 0.02499,0.375 0.02499,0.524994 0,0.294998 -0.01199,0.565002 -0.03799,0.800003 -0.02499,0.240005 -0.05399,0.505004 -0.08798,0.805008 l 3.572998,0 0,3.254989 -4.705017,0 c -0.53598,1.13501 -1.233002,2.154999 -2.087982,3.070007 -0.855011,0.914994 -1.845002,1.694993 -2.969025,2.330002 -1.122986,0.644989 -2.360992,1.134995 -3.710999,1.485001 -1.350982,0.349991 -2.787994,0.524994 -4.315002,0.524994 l -2.238982,0 0,8.169998 -8.1260073,0 0,-15.580002 -3.4979857,0 0,-3.254989 3.4979857,0 0,-2.610001 -3.4979857,0 0,-3.2600098 3.4979857,0 z" />
  </g>
  <path
     sodipodi:type="arc"
     style="fill:#ad7fa8;fill-opacity:1;fill-rule:nonzero;stroke:none;display:inline"
     id="path4337-1-9-9-0-4-4-7"
     sodipodi:cx="409.11179"
     sodipodi:cy="498.79858"
     sodipodi:rx="34.345188"
     sodipodi:ry="34.345188"
     d="m 443.45697,498.79858 a 34.345188,34.345188 0 1 1 -68.69037,0 34.345188,34.345188 0 1 1 68.69037,0 z"
     transform="matrix(5.45928,0,0,5.45928,-2045.9558,-2535.5811)" />
  <path
     style="fill:#ad59a8;fill-opacity:1;fill-rule:nonzero;stroke:none;display:inline"
     d="M 189.08468,1.1754151 C 85.531314,1.1754151 1.4494483,84.969385 1.4494483,188.52276 c 0,43.55894 15.2433827,83.71574 40.1616507,115.54755 L 335.91568,72.307295 C 301.57084,28.988475 248.66057,1.1754151 189.08468,1.1754151 z"
     id="path4337-1-9-9-0-9-1-3-4-0-5-2"
     inkscape:connector-curvature="0" />
  <path
     inkscape:connector-curvature="0"
     d="m 187.7852,89.440305 v -37.33269 l -47.89002,49.776925 47.89002,49.7769 v -37.33267 c 39.62897,0 71.83501,33.47498 71.83501,74.66537 0,12.56867 -2.99324,24.51513 -8.38074,34.84386 l 17.47981,18.16858 c 9.33858,-15.30639 14.84592,-33.47501 14.84592,-53.01244 0,-55.00346 -42.86154,-99.553835 -95.78,-99.553835 z m 0,174.219255 c -39.62903,0 -71.83501,-33.475 -71.83501,-74.66542 0,-12.56869 2.99324,-24.51515 8.38075,-34.84384 l -17.47987,-18.16856 c -9.338552,15.30638 -14.845903,33.47495 -14.845903,53.0124 0,55.00352 42.861553,99.55387 95.780033,99.55387 v 37.33268 l 47.89,-49.77691 -47.89,-49.77696 v 37.33274 z"
     id="path12027"
     style="fill:#ffffff;fill-opacity:1" />
</svg>
