<?xml version="1.0" encoding="UTF-8" standalone="no"?>
<!-- Created with Inkscape (http://www.inkscape.org/) -->

<svg
   xmlns:dc="http://purl.org/dc/elements/1.1/"
   xmlns:cc="http://creativecommons.org/ns#"
   xmlns:rdf="http://www.w3.org/1999/02/22-rdf-syntax-ns#"
   xmlns:svg="http://www.w3.org/2000/svg"
   xmlns="http://www.w3.org/2000/svg"
   xmlns:sodipodi="http://sodipodi.sourceforge.net/DTD/sodipodi-0.dtd"
   xmlns:inkscape="http://www.inkscape.org/namespaces/inkscape"
   width="750"
   height="750"
   id="svg3009"
   version="1.1"
   inkscape:version="0.48.5 r10040"
   sodipodi:docname="icon-edit-round-grad-bcp.svg"
   inkscape:export-filename="C:\Users\a.saraswati\Documents\IDSP\Design\assets\icon-idsp\icon-edit-round\icon-edit-round-inventory.png"
   inkscape:export-xdpi="148.05"
   inkscape:export-ydpi="148.05">
  <defs
     id="defs3011" />
  <sodipodi:namedview
     id="base"
     pagecolor="#ffffff"
     bordercolor="#666666"
     borderopacity="1.0"
     inkscape:pageopacity="0.0"
     inkscape:pageshadow="2"
     inkscape:zoom="0.24748737"
     inkscape:cx="137.5295"
     inkscape:cy="86.517733"
     inkscape:document-units="px"
     inkscape:current-layer="layer1"
     showgrid="false"
     inkscape:window-width="1366"
     inkscape:window-height="706"
     inkscape:window-x="-8"
     inkscape:window-y="-8"
     inkscape:window-maximized="1"
     fit-margin-top="0"
     fit-margin-left="0"
     fit-margin-right="0"
     fit-margin-bottom="0" />
  <metadata
     id="metadata3014">
    <rdf:RDF>
      <cc:Work
         rdf:about="">
        <dc:format>image/svg+xml</dc:format>
        <dc:type
           rdf:resource="http://purl.org/dc/dcmitype/StillImage" />
        <dc:title />
      </cc:Work>
    </rdf:RDF>
  </metadata>
  <g
     inkscape:label="Layer 1"
     inkscape:groupmode="layer"
     id="layer1"
     transform="translate(-591.59136,402.98273)">
    <path
       sodipodi:type="arc"
       style="fill:#fc5454;fill-opacity:1;fill-rule:nonzero;stroke:none;display:inline"
       id="path4337-1-9-8"
       sodipodi:cx="409.11179"
       sodipodi:cy="498.79858"
       sodipodi:rx="34.345188"
       sodipodi:ry="34.345188"
       d="m 443.45697,498.79858 c 0,18.96833 -15.37686,34.34519 -34.34518,34.34519 -18.96833,0 -34.34519,-15.37686 -34.34519,-34.34519 0,-18.96832 15.37686,-34.34518 34.34519,-34.34518 18.96832,0 34.34518,15.37686 34.34518,34.34518 z"
       transform="matrix(10.887877,0,0,10.91856,-3486.7136,-5474.145)"
       inkscape:export-filename="C:\Users\a.saraswati\Documents\IDSP\Design\assets\icon-idsp\icon-edit-round\icon-edit-round-bcp.png"
       inkscape:export-xdpi="148.05"
       inkscape:export-ydpi="148.05" />
    <path
       style="fill:#fc3048;fill-opacity:1;fill-rule:nonzero;stroke:none;display:inline"
       d="m 967.23581,-403.95669 c -206.52472,0 -374.21588,167.58793 -374.21588,374.694683 0,87.11789 30.40109,167.431487 80.09758,231.095117 l 586.95509,-463.52604 c -68.4967,-86.63764 -174.0198,-142.26376 -292.83679,-142.26376 z"
       id="path4337-1-9-9-0-9-1-3-4-0-5-9"
       inkscape:connector-curvature="0"
       inkscape:export-filename="C:\Users\a.saraswati\Documents\IDSP\Design\assets\icon-idsp\icon-edit-round\icon-edit-round-bcp.png"
       inkscape:export-xdpi="148.05"
       inkscape:export-ydpi="148.05" />
    <path
       inkscape:connector-curvature="0"
       d="m 1146.1188,-163.20954 h -61.5149 v -42.74592 c 0,-23.72399 -18.2495,-42.74592 -41.01,-42.74592 H 920.56403 c -22.76053,0 -41.00996,19.02193 -41.00996,42.74592 v 42.74592 h -61.51494 c -22.76053,0 -41.00996,19.02193 -41.00996,42.74591 v 235.10255 c 0,23.72399 18.24943,42.74592 41.00996,42.74592 h 328.07967 c 22.7605,0 41.01,-19.02193 41.01,-42.74592 v -235.10255 c 0,-23.72398 -18.2495,-42.74591 -41.01,-42.74591 z m -225.55477,-42.74592 h 123.02987 v 42.74592 H 920.56403 v -42.74592 z M 1146.1188,114.63892 H 818.03913 V 71.893004 h 328.07967 v 42.745916 z m 0,-106.8647927 H 818.03913 V -120.46363 h 61.51494 v 42.745922 h 41.00996 v -42.745922 h 123.02987 v 42.745922 h 41.01 v -42.745922 h 61.5149 V 7.7741273 z"
       id="path6-63"
       style="fill:#ffffff;display:inline"
       inkscape:export-filename="C:\Users\a.saraswati\Documents\IDSP\Design\assets\icon-idsp\icon-edit-round\icon-edit-round-bcp.png"
       inkscape:export-xdpi="148.05"
       inkscape:export-ydpi="148.05" />
  </g>
</svg>
