<?xml version="1.0" encoding="UTF-8" standalone="no"?>
<!-- Created with Inkscape (http://www.inkscape.org/) -->

<svg
   xmlns:dc="http://purl.org/dc/elements/1.1/"
   xmlns:cc="http://creativecommons.org/ns#"
   xmlns:rdf="http://www.w3.org/1999/02/22-rdf-syntax-ns#"
   xmlns:svg="http://www.w3.org/2000/svg"
   xmlns="http://www.w3.org/2000/svg"
   xmlns:sodipodi="http://sodipodi.sourceforge.net/DTD/sodipodi-0.dtd"
   xmlns:inkscape="http://www.inkscape.org/namespaces/inkscape"
   width="744.09448819"
   height="1052.3622047"
   id="svg5858"
   version="1.1"
   inkscape:version="0.48.5 r10040"
   sodipodi:docname="icon-edit-round-flat-remittance.svg"
   inkscape:export-filename="C:\Users\a.saraswati\Documents\IDSP\Design\assets\icon-idsp\icon-edit-round-flat\icon-edit-round-flat-remittance.png"
   inkscape:export-xdpi="148.05"
   inkscape:export-ydpi="148.05">
  <defs
     id="defs5860" />
  <sodipodi:namedview
     id="base"
     pagecolor="#ffffff"
     bordercolor="#666666"
     borderopacity="1.0"
     inkscape:pageopacity="0.0"
     inkscape:pageshadow="2"
     inkscape:zoom="3.959798"
     inkscape:cx="557.33618"
     inkscape:cy="385.09781"
     inkscape:document-units="px"
     inkscape:current-layer="layer1"
     showgrid="false"
     inkscape:window-width="553"
     inkscape:window-height="464"
     inkscape:window-x="485"
     inkscape:window-y="95"
     inkscape:window-maximized="0" />
  <metadata
     id="metadata5863">
    <rdf:RDF>
      <cc:Work
         rdf:about="">
        <dc:format>image/svg+xml</dc:format>
        <dc:type
           rdf:resource="http://purl.org/dc/dcmitype/StillImage" />
        <dc:title></dc:title>
      </cc:Work>
    </rdf:RDF>
  </metadata>
  <g
     inkscape:label="Layer 1"
     inkscape:groupmode="layer"
     id="layer1">
    <path
       sodipodi:type="arc"
       style="fill:#f1c40f;fill-opacity:1;fill-rule:nonzero;stroke:none;display:inline"
       id="path4337-1-9-9-0-4-2"
       sodipodi:cx="409.11179"
       sodipodi:cy="498.79858"
       sodipodi:rx="34.345188"
       sodipodi:ry="34.345188"
       d="m 443.45697,498.79858 a 34.345188,34.345188 0 1 1 -68.69037,0 34.345188,34.345188 0 1 1 68.69037,0 z"
       transform="matrix(0.53878593,0,0,0.51605792,336.92799,413.3681)" />
    <path
       inkscape:connector-curvature="0"
       d="m 553.56681,676.89562 c -0.9102,0 -1.6467,0.7448 -1.6467,1.655 0,0.9102 0.7365,1.6549 1.6467,1.6549 0.9102,0 1.6549,-0.7447 1.6549,-1.6549 0,-0.9102 -0.7447,-1.655 -1.6549,-1.655 z m -4.96479,-13.23939 v 1.65493 h 1.65493 l 2.97886,6.28046 -1.1171,2.0273 c -0.1324,0.2317 -0.2068,0.5047 -0.2068,0.7943 0,0.9103 0.7447,1.655 1.6549,1.655 h 9.9296 v -1.655 h -9.5821 c -0.1158,0 -0.2069,-0.091 -0.2069,-0.2068 l 0.025,-0.099 0.7448,-1.3488 h 6.1646 c 0.6206,0 1.1667,-0.3392 1.448,-0.8523 l 2.9624,-5.37022 c 0.066,-0.11585 0.099,-0.25651 0.099,-0.39718 0,-0.45511 -0.3724,-0.82747 -0.8275,-0.82747 h -12.2382 l -0.7778,-1.65493 h -2.70582 z m 13.23939,13.23939 c -0.9102,0 -1.6466,0.7448 -1.6466,1.655 0,0.9102 0.7364,1.6549 1.6466,1.6549 0.9102,0 1.655,-0.7447 1.655,-1.6549 0,-0.9102 -0.7448,-1.655 -1.655,-1.655 z"
       id="path4-9"
       style="fill:#ffffff;display:inline" />
  </g>
</svg>
