<?xml version="1.0" encoding="UTF-8" standalone="no"?>
<!-- Created with Inkscape (http://www.inkscape.org/) -->

<svg
   xmlns:dc="http://purl.org/dc/elements/1.1/"
   xmlns:cc="http://creativecommons.org/ns#"
   xmlns:rdf="http://www.w3.org/1999/02/22-rdf-syntax-ns#"
   xmlns:svg="http://www.w3.org/2000/svg"
   xmlns="http://www.w3.org/2000/svg"
   xmlns:sodipodi="http://sodipodi.sourceforge.net/DTD/sodipodi-0.dtd"
   xmlns:inkscape="http://www.inkscape.org/namespaces/inkscape"
   width="744.09448819"
   height="1052.3622047"
   id="svg5858"
   version="1.1"
   inkscape:version="0.48.5 r10040"
   sodipodi:docname="icon-edit-round-flat-inventory.svg"
   inkscape:export-filename="C:\Users\a.saraswati\Documents\IDSP\Design\assets\icon-idsp\icon-edit-round-flat\icon-edit-round-flat-inventory.png"
   inkscape:export-xdpi="148.05"
   inkscape:export-ydpi="148.05">
  <defs
     id="defs5860" />
  <sodipodi:namedview
     id="base"
     pagecolor="#ffffff"
     bordercolor="#666666"
     borderopacity="1.0"
     inkscape:pageopacity="0.0"
     inkscape:pageshadow="2"
     inkscape:zoom="3.959798"
     inkscape:cx="557.33618"
     inkscape:cy="385.09781"
     inkscape:document-units="px"
     inkscape:current-layer="layer1"
     showgrid="false"
     inkscape:window-width="553"
     inkscape:window-height="464"
     inkscape:window-x="485"
     inkscape:window-y="95"
     inkscape:window-maximized="0" />
  <metadata
     id="metadata5863">
    <rdf:RDF>
      <cc:Work
         rdf:about="">
        <dc:format>image/svg+xml</dc:format>
        <dc:type
           rdf:resource="http://purl.org/dc/dcmitype/StillImage" />
        <dc:title></dc:title>
      </cc:Work>
    </rdf:RDF>
  </metadata>
  <g
     inkscape:label="Layer 1"
     inkscape:groupmode="layer"
     id="layer1">
    <path
       sodipodi:type="arc"
       style="fill:#729fcf;fill-opacity:1;fill-rule:nonzero;stroke:none;display:inline"
       id="path4337-1-9-8-1"
       sodipodi:cx="409.11179"
       sodipodi:cy="498.79858"
       sodipodi:rx="34.345188"
       sodipodi:ry="34.345188"
       d="m 443.45697,498.79858 a 34.345188,34.345188 0 1 1 -68.69037,0 34.345188,34.345188 0 1 1 68.69037,0 z"
       transform="matrix(0.53098696,0,0,0.51085861,340.37119,414.44627)" />
    <path
       inkscape:connector-curvature="0"
       d="m 566.30808,662.93482 h -3 v -2 c 0,-1.11 -0.89,-2 -2,-2 h -6 c -1.11,0 -2,0.89 -2,2 v 2 h -2.99995 c -1.11,0 -2,0.89 -2,2 v 11 c 0,1.11 0.89,2 2,2 h 15.99995 c 1.11,0 2,-0.89 2,-2 v -11 c 0,-1.11 -0.89,-2 -2,-2 z m -11,-2 h 6 v 2 h -6 v -2 z m 11,15 h -15.99995 v -2 h 15.99995 v 2 z m 0,-5 h -15.99995 v -6 h 2.99995 v 2 h 2 v -2 h 6 v 2 h 2 v -2 h 3 v 6 z"
       id="path6-63-3"
       style="fill:#ffffff;display:inline" />
  </g>
</svg>
