<?xml version="1.0" encoding="UTF-8" standalone="no"?>
<!-- Created with Inkscape (http://www.inkscape.org/) -->

<svg
   xmlns:dc="http://purl.org/dc/elements/1.1/"
   xmlns:cc="http://creativecommons.org/ns#"
   xmlns:rdf="http://www.w3.org/1999/02/22-rdf-syntax-ns#"
   xmlns:svg="http://www.w3.org/2000/svg"
   xmlns="http://www.w3.org/2000/svg"
   xmlns:sodipodi="http://sodipodi.sourceforge.net/DTD/sodipodi-0.dtd"
   xmlns:inkscape="http://www.inkscape.org/namespaces/inkscape"
   width="744.09448819"
   height="1052.3622047"
   id="svg5858"
   version="1.1"
   inkscape:version="0.48.5 r10040"
   sodipodi:docname="icon-edit-round-flat-target.svg"
   inkscape:export-filename="C:\Users\a.saraswati\Documents\IDSP\Design\assets\icon-idsp\icon-edit-round-flat\icon-edit-round-flat-target.png"
   inkscape:export-xdpi="148.05"
   inkscape:export-ydpi="148.05">
  <defs
     id="defs5860" />
  <sodipodi:namedview
     id="base"
     pagecolor="#ffffff"
     bordercolor="#666666"
     borderopacity="1.0"
     inkscape:pageopacity="0.0"
     inkscape:pageshadow="2"
     inkscape:zoom="3.959798"
     inkscape:cx="557.33618"
     inkscape:cy="385.09781"
     inkscape:document-units="px"
     inkscape:current-layer="layer1"
     showgrid="false"
     inkscape:window-width="553"
     inkscape:window-height="464"
     inkscape:window-x="240"
     inkscape:window-y="73"
     inkscape:window-maximized="0" />
  <metadata
     id="metadata5863">
    <rdf:RDF>
      <cc:Work
         rdf:about="">
        <dc:format>image/svg+xml</dc:format>
        <dc:type
           rdf:resource="http://purl.org/dc/dcmitype/StillImage" />
        <dc:title></dc:title>
      </cc:Work>
    </rdf:RDF>
  </metadata>
  <g
     inkscape:label="Layer 1"
     inkscape:groupmode="layer"
     id="layer1">
    <path
       sodipodi:type="arc"
       style="fill:#e67e22;fill-opacity:1;fill-rule:nonzero;stroke:none;display:inline"
       id="path4337-1-5-8"
       sodipodi:cx="409.11179"
       sodipodi:cy="498.79858"
       sodipodi:rx="34.345188"
       sodipodi:ry="34.345188"
       d="m 443.45697,498.79858 a 34.345188,34.345188 0 1 1 -68.69037,0 34.345188,34.345188 0 1 1 68.69037,0 z"
       transform="matrix(0.53098696,0,0,0.51085861,340.11864,417.47673)" />
    <g
       id="g5172-2-3"
       transform="matrix(0.88353888,0,0,0.88700472,536.66786,651.19441)"
       style="fill:#ffffff;display:inline">
      <path
         id="path1-5-2"
         transform="matrix(0.8125,0,0,0.8125,12.612,11)"
         d="m 2.0020766,10.313703 0,12.425311 10.9508744,6.369041 0,-12.525112 z m 24.0269914,-0.07282 -11.07407,6.334561 0,12.534167 11.07407,-6.37365 z M 7.9547414,5.766717 3.0402941,8.6020098 13.947012,14.847024 18.915749,12.004758 z M 13.948007,2.309021 9.9642581,4.6073656 20.933895,10.850318 24.872543,8.5972929 z M 13.946053,0 28.032,8.1069946 28.032,23.891968 13.9441,32 0,23.888977 0,8.0460205 z"
         inkscape:connector-curvature="0"
         style="fill:#ffffff" />
    </g>
  </g>
</svg>
