<?xml version="1.0" encoding="UTF-8" standalone="no"?>
<!-- Created with Inkscape (http://www.inkscape.org/) -->

<svg
   xmlns:dc="http://purl.org/dc/elements/1.1/"
   xmlns:cc="http://creativecommons.org/ns#"
   xmlns:rdf="http://www.w3.org/1999/02/22-rdf-syntax-ns#"
   xmlns:svg="http://www.w3.org/2000/svg"
   xmlns="http://www.w3.org/2000/svg"
   xmlns:sodipodi="http://sodipodi.sourceforge.net/DTD/sodipodi-0.dtd"
   xmlns:inkscape="http://www.inkscape.org/namespaces/inkscape"
   width="744.09448819"
   height="1052.3622047"
   id="svg5858"
   version="1.1"
   inkscape:version="0.48.5 r10040"
   sodipodi:docname="New document 60">
  <defs
     id="defs5860" />
  <sodipodi:namedview
     id="base"
     pagecolor="#ffffff"
     bordercolor="#666666"
     borderopacity="1.0"
     inkscape:pageopacity="0.0"
     inkscape:pageshadow="2"
     inkscape:zoom="3.959798"
     inkscape:cx="557.33618"
     inkscape:cy="387.24438"
     inkscape:document-units="px"
     inkscape:current-layer="layer1"
     showgrid="false"
     inkscape:window-width="463"
     inkscape:window-height="405"
     inkscape:window-x="75"
     inkscape:window-y="75"
     inkscape:window-maximized="0" />
  <metadata
     id="metadata5863">
    <rdf:RDF>
      <cc:Work
         rdf:about="">
        <dc:format>image/svg+xml</dc:format>
        <dc:type
           rdf:resource="http://purl.org/dc/dcmitype/StillImage" />
        <dc:title></dc:title>
      </cc:Work>
    </rdf:RDF>
  </metadata>
  <g
     inkscape:label="Layer 1"
     inkscape:groupmode="layer"
     id="layer1">
    <path
       sodipodi:type="arc"
       style="fill:#1abc9c;fill-opacity:1;fill-rule:nonzero;stroke:none;display:inline"
       id="path4337-2-5"
       sodipodi:cx="409.11179"
       sodipodi:cy="498.79858"
       sodipodi:rx="34.345188"
       sodipodi:ry="34.345188"
       d="m 443.45697,498.79858 a 34.345188,34.345188 0 1 1 -68.69037,0 34.345188,34.345188 0 1 1 68.69037,0 z"
       transform="matrix(0.53098696,0,0,0.51085861,328.48126,414.68949)" />
    <path
       style="fill:#ffffff;display:inline"
       d="m 544.44461,679.35471 c -1.1851,-0.13671 -2.1364,-0.42447 -3.2705,-0.98928 -2.1191,-1.05539 -3.7402,-2.78364 -4.68755,-4.99748 -0.2925,-0.68353 -0.57296,-1.70117 -0.6782,-2.46077 -0.0838,-0.6053 -0.0838,-2.18514 0,-2.79045 0.22387,-1.61588 0.89007,-3.2281 1.89433,-4.58437 0.47639,-0.64337 1.44512,-1.59121 2.12412,-2.07842 0.674,-0.48357 1.911,-1.11269 2.6786,-1.36229 3.1796,-1.03393 6.6395,-0.39667 9.2785,1.70897 0.1916,0.15283 0.3633,0.31727 0.3818,0.36544 0.043,0.11281 -0.388,0.77772 -0.6825,1.05273 -0.5201,0.48555 -0.4262,0.48152 -0.9891,0.0425 -1.7679,-1.37907 -3.8943,-1.95679 -6.0305,-1.63836 -0.9095,0.13558 -1.574,0.34409 -2.3894,0.74973 -3.54522,1.7638 -5.2586,5.81944 -4.05258,9.59273 0.485,1.51743 1.50748,2.94647 2.81788,3.93825 0.6259,0.47371 1.7694,1.05294 2.479,1.25581 4.1799,1.19489 8.4241,-1.0447 9.7994,-5.17087 0.3112,-0.93349 0.4109,-1.69051 0.3658,-2.77668 -0.021,-0.49765 -0.053,-1.00252 -0.073,-1.12195 -0.035,-0.21063 -0.028,-0.2203 0.225,-0.322 0.3587,-0.14435 1.262,-0.25432 1.4746,-0.17954 0.1543,0.0543 0.1717,0.095 0.2433,0.56929 0.1198,0.79274 0.064,2.57922 -0.1046,3.36881 -1.0777,5.03925 -5.7342,8.41309 -10.8042,7.82824 z m 0.27,-3.888 c -1.2998,-0.20737 -2.5648,-0.87006 -3.4532,-1.80893 -0.742,-0.78421 -1.206,-1.61938 -1.4828,-2.66912 -0.1294,-0.49066 -0.1511,-0.7029 -0.1511,-1.4767 0,-0.7738 0.022,-0.98604 0.1511,-1.47669 0.4698,-1.78138 1.6467,-3.19829 3.3021,-3.97534 0.7005,-0.32879 1.3814,-0.49073 2.219,-0.52774 0.8193,-0.0361 1.3958,0.041 2.1754,0.29112 0.4916,0.15775 1.3898,0.61305 1.5755,0.79868 0.06,0.0602 -0.1121,0.18093 -0.8644,0.60519 -0.6239,0.35181 -0.982,0.5202 -1.0655,0.50096 -0.069,-0.0159 -0.3393,-0.0861 -0.6004,-0.15584 -1.7737,-0.47407 -3.7323,0.44092 -4.5638,2.13205 -0.3026,0.61532 -0.4149,1.10488 -0.4149,1.80761 0,1.58748 0.8385,2.9335 2.2729,3.64872 1.1728,0.58478 2.5542,0.5459 3.7664,-0.10603 0.1729,-0.0929 0.5467,-0.39941 0.8309,-0.68106 0.4187,-0.41492 0.5639,-0.60923 0.7656,-1.02416 0.1369,-0.28165 0.2966,-0.70986 0.3548,-0.95158 l 0.106,-0.4395 0.937,-0.53084 0.9369,-0.53083 0.03,0.30764 c 0.046,0.4731 -0.061,1.41706 -0.2276,1.99238 -0.2909,1.00773 -0.7983,1.8461 -1.5873,2.62277 -0.7646,0.75258 -1.5997,1.22346 -2.6878,1.51551 -0.4583,0.12301 -1.876,0.20335 -2.3249,0.13173 z m -0.07,-4.14416 c -0.4735,-0.2396 -0.715,-0.47846 -0.9648,-0.95432 -0.1479,-0.28185 -0.1648,-0.37586 -0.1649,-0.91651 0,-0.53641 0.018,-0.63971 0.1662,-0.94233 0.2029,-0.41479 0.599,-0.79253 1.0534,-1.00467 0.2844,-0.13274 0.4248,-0.15888 0.8507,-0.15843 0.4318,3.5e-4 0.5672,0.0268 0.8819,0.17112 l 0.3718,0.1706 2.4459,-1.37521 c 2.6063,-1.46535 3.0921,-1.79588 3.6215,-2.46382 0.3011,-0.37985 0.8402,-1.34928 0.8402,-1.51083 0,-0.0589 4.3507,-2.55575 4.4533,-2.55575 0.019,0 -0.1403,0.68032 -0.3536,1.51183 -0.2132,0.83151 -0.375,1.52461 -0.3595,1.54023 0.016,0.0156 0.6589,0.2055 1.4296,0.42196 0.7707,0.21647 1.4199,0.41123 1.4427,0.43279 0.023,0.0216 -0.9544,0.59929 -2.1715,1.28379 l -2.2129,1.24455 -0.2589,-0.0638 c -0.457,-0.11255 -1.5221,-0.0801 -2.0641,0.0629 -0.7184,0.18957 -0.8623,0.26116 -3.5125,1.74758 l -2.4372,1.36696 -0.033,0.34981 c -0.063,0.67289 -0.5129,1.32491 -1.1367,1.64758 -0.2636,0.13637 -0.4133,0.16807 -0.8872,0.1879 -0.5568,0.0233 -0.5801,0.0188 -1.0006,-0.19397 z"
       id="path3010-9-1"
       inkscape:connector-curvature="0" />
  </g>
</svg>
