<?xml version="1.0" encoding="UTF-8" standalone="no"?>
<!-- Created with Inkscape (http://www.inkscape.org/) -->

<svg
   xmlns:dc="http://purl.org/dc/elements/1.1/"
   xmlns:cc="http://creativecommons.org/ns#"
   xmlns:rdf="http://www.w3.org/1999/02/22-rdf-syntax-ns#"
   xmlns:svg="http://www.w3.org/2000/svg"
   xmlns="http://www.w3.org/2000/svg"
   xmlns:sodipodi="http://sodipodi.sourceforge.net/DTD/sodipodi-0.dtd"
   xmlns:inkscape="http://www.inkscape.org/namespaces/inkscape"
   id="svg2989"
   version="1.1"
   inkscape:version="0.48.5 r10040"
   width="512"
   height="512"
   sodipodi:docname="dart-download.png">
  <metadata
     id="metadata2995">
    <rdf:RDF>
      <cc:Work
         rdf:about="">
        <dc:format>image/svg+xml</dc:format>
        <dc:type
           rdf:resource="http://purl.org/dc/dcmitype/StillImage" />
        <dc:title></dc:title>
      </cc:Work>
    </rdf:RDF>
  </metadata>
  <defs
     id="defs2993" />
  <sodipodi:namedview
     pagecolor="#ffffff"
     bordercolor="#666666"
     borderopacity="1"
     objecttolerance="10"
     gridtolerance="10"
     guidetolerance="10"
     inkscape:pageopacity="0"
     inkscape:pageshadow="2"
     inkscape:window-width="1016"
     inkscape:window-height="623"
     id="namedview2991"
     showgrid="false"
     inkscape:zoom="0.4609375"
     inkscape:cx="256"
     inkscape:cy="237.55932"
     inkscape:window-x="0"
     inkscape:window-y="0"
     inkscape:window-maximized="0"
     inkscape:current-layer="svg2989" />
  <path
     style="fill:#888a85"
     d="m 217.69491,428.55672 c -19.749,-2.26924 -35.60144,-7.0456 -54.5,-16.42092 -35.31311,-17.51835 -62.3265,-46.2054 -78.113096,-82.95272 -4.87413,-11.34577 -9.54779,-28.23738 -11.30148,-40.8459 -1.39749,-10.04759 -1.39749,-36.27083 0,-46.31842 3.73058,-26.82185 14.83202,-53.58298 31.567056,-76.09554 7.93852,-10.67916 24.08091,-26.41246 35.39665,-34.4996 11.23104,-8.02661 31.84446,-18.4694 44.63549,-22.6124 52.98593,-17.162085 110.64158,-6.58427 154.61832,28.3671 3.19162,2.5366 6.05401,5.26627 6.36087,6.06594 0.71849,1.87236 -6.46502,12.90915 -11.37322,17.47386 -8.66622,8.05975 -7.10148,7.99282 -16.48085,0.70492 -29.46032,-22.89108 -64.89587,-32.48055 -100.49239,-27.19498 -15.15651,2.25053 -26.23062,5.71171 -39.81735,12.44481 -59.07801,29.27696 -87.629756,96.59626 -67.53273,159.22866 8.08201,25.18757 25.12144,48.90819 46.95821,65.37057 10.42997,7.86299 29.48385,17.47767 41.30977,20.84511 69.65288,19.83374 140.37932,-17.34082 163.29753,-85.83089 5.18487,-15.49476 6.84645,-28.06046 6.0945,-46.08971 -0.3445,-8.26025 -0.89316,-16.64064 -1.21924,-18.62308 -0.57504,-3.49606 -0.46228,-3.65679 3.74955,-5.34497 5.97791,-2.39607 21.02962,-4.22143 24.5735,-2.98009 2.57063,0.90042 2.86099,1.5771 4.05476,9.44969 1.9953,13.15849 1.07089,42.81231 -1.74318,55.91836 -17.96003,83.64602 -95.55547,139.64812 -180.04267,129.9402 z m 4.5,-64.53638 c -21.65989,-3.44213 -42.74139,-14.44224 -57.54462,-30.0262 -12.36479,-13.01691 -20.09656,-26.87999 -24.70976,-44.30469 -2.15625,-8.14443 -2.51818,-11.66737 -2.51818,-24.51148 0,-12.84411 0.36193,-16.36705 2.51818,-24.51148 7.82839,-29.56893 27.4413,-53.08803 55.02692,-65.98632 11.67172,-5.45739 23.01943,-8.14561 36.97712,-8.75974 13.65203,-0.60067 23.25995,0.68007 36.25034,4.83218 8.19263,2.6186 23.15947,10.17604 26.25467,13.25717 1.00445,0.99987 -1.8685,3.00335 -14.40508,10.04551 -10.39609,5.83979 -16.36391,8.63484 -17.75467,8.31548 -1.15221,-0.26459 -5.6544,-1.42871 -10.00488,-2.58693 -29.55715,-7.869 -62.1959,7.31901 -76.05188,35.38971 -5.04153,10.21361 -6.9141,18.3398 -6.9141,30.00442 0,26.35043 13.97259,48.69299 37.87594,60.56469 19.54413,9.70667 42.56305,9.06124 62.76391,-1.75985 2.87985,-1.54266 9.11045,-6.62984 13.84577,-11.30484 6.9762,-6.88733 9.3966,-10.11267 12.75733,-17 2.28121,-4.675 4.94224,-11.78285 5.91342,-15.79522 l 1.76577,-7.29521 15.61345,-8.81136 15.61345,-8.81135 0.50175,5.10657 c 0.7716,7.85299 -1.02533,23.52178 -3.79269,33.07137 -4.84737,16.72726 -13.30238,30.64316 -26.45108,43.5352 -12.74068,12.49198 -26.65677,20.30798 -44.78892,25.15577 -7.6369,2.0418 -31.26264,3.37523 -38.74216,2.1866 z m -1.17357,-68.78857 c -7.89073,-3.97714 -11.9147,-7.94184 -16.07752,-15.84072 -2.46557,-4.67837 -2.74745,-6.23879 -2.74814,-15.21308 -6.9e-4,-8.90368 0.30296,-10.61849 2.7697,-15.64151 3.38112,-6.88499 9.98157,-13.15532 17.55438,-16.67643 4.73861,-2.2033 7.07786,-2.63728 14.17515,-2.62978 7.19497,0.008 9.45122,0.44371 14.69555,2.84048 l 6.19556,2.8315 40.75904,-22.82678 c 43.43122,-24.3233 51.52681,-29.80942 60.3492,-40.89667 5.01707,-6.30503 14.00065,-22.39665 14.00065,-25.07832 0,-0.97746 72.50006,-42.42249 74.20994,-42.42249 0.31389,0 -2.33729,11.29264 -5.89153,25.09475 -3.55423,13.80211 -6.25013,25.30686 -5.99089,25.5661 0.25924,0.25925 10.97911,3.41112 23.82192,7.00417 12.84281,3.59305 23.66136,6.82581 24.04122,7.1839 0.37986,0.35809 -15.90356,9.94728 -36.18538,21.3093 l -36.87603,20.65823 -4.31462,-1.05839 c -7.61573,-1.86815 -25.36442,-1.32933 -34.39543,1.04418 -11.97244,3.14657 -14.37026,4.33488 -58.53277,29.00769 l -40.61357,22.69007 -0.54673,5.80651 c -1.05165,11.16913 -8.54789,21.99211 -18.94178,27.34793 -4.39297,2.26364 -6.88683,2.78976 -14.78435,3.11899 -9.27891,0.38682 -9.66695,0.31189 -16.67357,-3.21963 z"
     id="path3010"
     inkscape:connector-curvature="0" />
</svg>
